<svg width="21" height="20" viewBox="0 0 21 20" fill="none" xmlns="http://www.w3.org/2000/svg">
<g clip-path="url(#clip0_96_30955)">
<path d="M15.581 1.5975C14.6426 1.6121 13.7247 1.87405 12.92 2.3569C12.1152 2.83974 11.4522 3.52639 10.9977 4.3475C10.5432 3.52639 9.88013 2.83974 9.07538 2.3569C8.27064 1.87405 7.35273 1.6121 6.41435 1.5975C4.91847 1.6625 3.50911 2.31688 2.49417 3.4177C1.47924 4.51851 0.941228 5.97627 0.997687 7.4725C0.997687 11.2617 4.98602 15.4 8.33102 18.2058C9.07787 18.8334 10.0221 19.1775 10.9977 19.1775C11.9732 19.1775 12.9175 18.8334 13.6644 18.2058C17.0094 15.4 20.9977 11.2617 20.9977 7.4725C21.0541 5.97627 20.5161 4.51851 19.5012 3.4177C18.4863 2.31688 17.0769 1.6625 15.581 1.5975ZM12.5935 16.9308C12.1468 17.307 11.5816 17.5133 10.9977 17.5133C10.4137 17.5133 9.84853 17.307 9.40185 16.9308C5.12019 13.3383 2.66435 9.89167 2.66435 7.4725C2.60739 6.4181 2.96966 5.38395 3.67216 4.59559C4.37465 3.80723 5.36038 3.32863 6.41435 3.26417C7.46832 3.32863 8.45405 3.80723 9.15655 4.59559C9.85905 5.38395 10.2213 6.4181 10.1644 7.4725C10.1644 7.69352 10.2521 7.90548 10.4084 8.06176C10.5647 8.21804 10.7767 8.30584 10.9977 8.30584C11.2187 8.30584 11.4307 8.21804 11.5869 8.06176C11.7432 7.90548 11.831 7.69352 11.831 7.4725C11.7741 6.4181 12.1363 5.38395 12.8388 4.59559C13.5413 3.80723 14.527 3.32863 15.581 3.26417C16.635 3.32863 17.6207 3.80723 18.3232 4.59559C19.0257 5.38395 19.388 6.4181 19.331 7.4725C19.331 9.89167 16.8752 13.3383 12.5935 16.9275V16.9308Z" fill="#0B3F37"/>
</g>
<defs>
<clipPath id="clip0_96_30955">
<rect width="20" height="20" fill="white" transform="translate(0.997803)"/>
</clipPath>
</defs>
</svg>
