<svg width="30" height="30" viewBox="0 0 30 30" fill="none" xmlns="http://www.w3.org/2000/svg">
<g clip-path="url(#clip0_23_540)">
<path d="M21.875 2.39624C20.4674 2.41813 19.0905 2.81106 17.8834 3.53533C16.6763 4.2596 15.6817 5.28958 15 6.52124C14.3183 5.28958 13.3236 4.2596 12.1165 3.53533C10.9094 2.81106 9.53254 2.41813 8.12498 2.39624C5.88115 2.49373 3.76711 3.47531 2.24471 5.12653C0.722303 6.77775 -0.0847098 8.9644 -2.16197e-05 11.2087C-2.16197e-05 16.8925 5.98248 23.1 11 27.3087C12.1202 28.2502 13.5367 28.7663 15 28.7663C16.4633 28.7663 17.8797 28.2502 19 27.3087C24.0175 23.1 30 16.8925 30 11.2087C30.0847 8.9644 29.2777 6.77775 27.7552 5.12653C26.2328 3.47531 24.1188 2.49373 21.875 2.39624ZM17.3937 25.3962C16.7237 25.9605 15.8759 26.2699 15 26.2699C14.124 26.2699 13.2762 25.9605 12.6062 25.3962C6.18373 20.0075 2.49998 14.8375 2.49998 11.2087C2.41453 9.62714 2.95794 8.0759 4.01168 6.89336C5.06543 5.71083 6.54402 4.99293 8.12498 4.89624C9.70594 4.99293 11.1845 5.71083 12.2383 6.89336C13.292 8.0759 13.8354 9.62714 13.75 11.2087C13.75 11.5403 13.8817 11.8582 14.1161 12.0926C14.3505 12.327 14.6685 12.4587 15 12.4587C15.3315 12.4587 15.6494 12.327 15.8839 12.0926C16.1183 11.8582 16.25 11.5403 16.25 11.2087C16.1645 9.62714 16.7079 8.0759 17.7617 6.89336C18.8154 5.71083 20.294 4.99293 21.875 4.89624C23.4559 4.99293 24.9345 5.71083 25.9883 6.89336C27.042 8.0759 27.5854 9.62714 27.5 11.2087C27.5 14.8375 23.8162 20.0075 17.3937 25.3912V25.3962Z" fill="#031412"/>
</g>
<defs>
<clipPath id="clip0_23_540">
<rect width="30" height="30" fill="white"/>
</clipPath>
</defs>
</svg>
