<svg width="24" height="23" viewBox="0 0 24 23" fill="none" xmlns="http://www.w3.org/2000/svg">
<path d="M17.5009 0.996887C16.3749 1.01513 15.2734 1.34257 14.3077 1.94613C13.342 2.54969 12.5463 3.408 12.0009 4.43439C11.4556 3.408 10.6599 2.54969 9.69417 1.94613C8.72847 1.34257 7.62698 1.01513 6.50093 0.996887C4.70588 1.07813 3.01464 1.89611 1.79672 3.27213C0.578794 4.64815 -0.0668157 6.47035 0.000934853 8.34064C0.000934853 13.0771 4.78693 18.25 8.80093 21.7573C9.69715 22.5418 10.8303 22.9719 12.0009 22.9719C13.1716 22.9719 14.3047 22.5418 15.2009 21.7573C19.2149 18.25 24.0009 13.0771 24.0009 8.34064C24.0687 6.47035 23.4231 4.64815 22.2052 3.27213C20.9872 1.89611 19.296 1.07813 17.5009 0.996887ZM13.9159 20.1636C13.3799 20.6337 12.7017 20.8916 12.0009 20.8916C11.3002 20.8916 10.622 20.6337 10.0859 20.1636C4.94793 15.6729 2.00093 11.3646 2.00093 8.34064C1.93258 7.02263 2.3673 5.72994 3.2103 4.74449C4.05329 3.75904 5.23617 3.16079 6.50093 3.08022C7.7657 3.16079 8.94857 3.75904 9.79157 4.74449C10.6346 5.72994 11.0693 7.02263 11.0009 8.34064C11.0009 8.6169 11.1063 8.88186 11.2938 9.07721C11.4814 9.27256 11.7357 9.3823 12.0009 9.3823C12.2662 9.3823 12.5205 9.27256 12.708 9.07721C12.8956 8.88186 13.0009 8.6169 13.0009 8.34064C12.9326 7.02263 13.3673 5.72994 14.2103 4.74449C15.0533 3.75904 16.2362 3.16079 17.5009 3.08022C18.7657 3.16079 19.9486 3.75904 20.7916 4.74449C21.6346 5.72994 22.0693 7.02263 22.0009 8.34064C22.0009 11.3646 19.0539 15.6729 13.9159 20.1594V20.1636Z" fill="white"/>
</svg>
